<svg viewBox="0 0 30 30" xmlns="http://www.w3.org/2000/svg" xmlns:xlink="http://www.w3.org/1999/xlink" width="30.000000" height="30.000000" fill="none" customFrame="#000000">
	<defs>
		<filter id="pixso_custom_mask_type_outline">
			<feColorMatrix type="matrix" values="0 0 0 0 1 0 0 0 0 1 0 0 0 0 1 0 0 0 1 0 " />
		</filter>
	</defs>
	<mask id="mask_3" width="29.999975" height="30.000000" x="0.000000" y="0.000000" maskUnits="userSpaceOnUse">
		<g filter="url(#pixso_custom_mask_type_outline)">
			<path id="Clip 2" d="M15 0L30 0L30 30L15 30L0 30L0 0L15 0Z" fill="rgb(255,255,255)" fill-rule="evenodd" />
		</g>
	</mask>
	<g id="Page 1">
		<g id="Group 3" mask="url(#mask_3)">
			<path id="Fill 1" d="M0 10.0595L0 19.9405C0.02304 20.252 0.0549 20.5633 0.06768 20.8752C0.12582 22.2979 0.29184 23.7016 0.86304 25.0227C1.91652 27.4589 3.77514 28.9403 6.32952 29.5813C7.46172 29.8654 8.61912 29.9178 9.7785 29.9522C9.87258 29.9549 9.96588 29.9834 10.0595 30L19.9405 30C20.252 29.977 20.5632 29.9452 20.8752 29.9323C22.2977 29.8738 23.7016 29.7082 25.0226 29.137C27.4589 28.0834 28.9403 26.2249 29.5813 23.6705C29.8653 22.5383 29.9178 21.3809 29.9521 20.2215C29.9549 20.1274 29.9834 20.0341 30 19.9405L30 10.0595C29.9769 9.74796 29.9451 9.43674 29.9323 9.12474C29.8738 7.70226 29.7082 6.29844 29.137 4.97736C28.0834 2.54112 26.2249 1.05978 23.6705 0.41868C22.5383 0.13452 21.3808 0.08238 20.2214 0.04782C20.1274 0.04506 20.0341 0.01656 19.9405 0L10.0595 0C9.74796 0.02304 9.43674 0.0549 9.12474 0.06768C7.70214 0.12582 6.29838 0.29184 4.9773 0.8631C2.54106 1.91652 1.05972 3.77514 0.41868 6.32946C0.13452 7.46172 0.08232 8.61912 0.04782 9.77856C0.045 9.87258 0.0165 9.96588 0 10.0595ZM27.2716 14.998C27.287 14.9981 27.3024 14.9983 27.3178 14.9984C27.2791 17.0204 27.2641 19.0432 27.1891 21.0638C27.1621 21.7909 27.0625 22.532 26.8723 23.2332C26.2853 25.3972 24.8099 26.6614 22.6297 27.0037C21.3539 27.2039 20.0455 27.2287 18.7499 27.262C16.9956 27.3071 15.2393 27.3065 13.4843 27.2852C11.7207 27.2636 9.95502 27.2372 8.19528 27.1298C6.64902 27.0355 5.25246 26.5221 4.19436 25.3038C3.438 24.4329 3.04326 23.4004 2.92896 22.28C2.80944 21.1088 2.7594 19.9279 2.73576 18.7501C2.7006 16.9953 2.6934 15.2393 2.71482 13.4843C2.7363 11.7207 2.76276 9.95502 2.87016 8.19528C2.96454 6.64902 3.47784 5.25246 4.6962 4.19436C5.5671 3.43806 6.59964 3.04326 7.71996 2.92896C8.89122 2.80944 10.0721 2.7594 11.2499 2.73582C13.0047 2.7006 14.7607 2.69346 16.5157 2.71482C18.2793 2.73636 20.045 2.76282 21.8047 2.87016C23.351 2.96454 24.7475 3.4779 25.8056 4.69626C26.5619 5.5671 26.9567 6.59964 27.071 7.72002C27.1906 8.89128 27.2348 10.0721 27.2645 11.25C27.2864 12.1192 27.2813 12.989 27.2761 13.8588C27.2739 14.2386 27.2716 14.6183 27.2716 14.998Z" fill="rgb(228,48,113)" fill-rule="evenodd" />
		</g>
		<path id="Fill 4" d="M14.9786 22.7089C19.2516 22.715 22.7071 19.272 22.7087 15.0067C22.7102 10.7496 19.2716 7.29853 15.0213 7.29151C10.7492 7.28443 7.29432 10.7269 7.29126 14.9937C7.28826 19.2491 10.7294 22.7028 14.9786 22.7089ZM19.99 15.0564C19.9874 17.7562 17.726 19.9903 14.9958 19.9902C12.2438 19.9901 10.0096 17.7487 10.0099 14.9886C10.0103 12.2281 12.2573 10.008 15.0487 10.0102C17.7768 10.0122 19.9927 12.2752 19.99 15.0564Z" fill="rgb(228,48,113)" fill-rule="evenodd" />
		<path id="Fill 6" d="M22.9906 5.1885C23.998 5.18394 24.8093 5.98626 24.8116 6.98922C24.8139 7.99194 24.0049 8.80524 23.0031 8.80728C22.0106 8.80926 21.189 7.98354 21.1928 6.9876C21.1965 6.00222 22.0052 5.19294 22.9906 5.1885Z" fill="rgb(228,48,113)" fill-rule="evenodd" />
	</g>
</svg>
